<svg width="332" height="162" viewBox="0 0 332 162" fill="none" xmlns="http://www.w3.org/2000/svg">
<g opacity="0.14">
<path d="M-52.5664 -3.42514H101.357C105.807 -3.72759 110.205 -3.75784 114.55 -3.57637C118.896 -3.3949 123.225 -3.01683 127.45 -2.62364C171.791 -1.56506 210.246 20.2719 252.545 21.9505C275.607 21.9505 292.922 5.16448 314.305 -1.67092C318.183 -2.86561 322.148 -3.71247 326.286 -4.06029C330.407 -4.39299 334.701 -4.24175 339.22 -3.42514H384.687" stroke="url(#paint0_linear_49_4493)" stroke-opacity="0.74" stroke-width="4.82782" stroke-miterlimit="10"/>
<path d="M-52.5664 16.6729H101.357C107.659 16.4309 113.806 16.5519 119.866 16.9753C125.926 17.3836 131.882 18.049 137.665 18.6842C166.043 20.272 191.027 30.3437 216.029 40.4153C256.406 55.5227 291 35.3795 324.849 19.3949C329.991 17.7314 335.29 16.5065 340.813 15.9772C346.336 15.4479 352.084 15.5992 358.144 16.6729H384.704" stroke="url(#paint1_linear_49_4493)" stroke-opacity="0.74" stroke-width="4.82782" stroke-miterlimit="10"/>
<path d="M-52.5664 36.7707H101.357C106.603 36.7707 111.901 36.7707 117.252 36.7707C123.554 37.9201 129.839 38.9786 136.089 39.9465C189.123 45.436 242.953 67.2729 296.385 54.449C302.271 53.0426 308.141 51.1977 313.976 48.8839C319.811 46.5702 325.611 43.7574 331.394 40.4002C341.003 35.3644 348.691 37.043 358.196 36.7859C366.524 36.7556 373.173 36.7556 377.709 36.7556H384.722" stroke="url(#paint2_linear_49_4493)" stroke-opacity="0.74" stroke-width="4.82782" stroke-miterlimit="10"/>
<path d="M-52.5664 56.8684H133.371C138.79 56.8684 144.244 56.8835 149.975 57.1709C191.027 68.9665 233.326 72.3237 275.175 69.9645C282.1 69.4352 289.026 68.7396 295.952 67.9079C316.729 65.3975 337.471 61.5564 358.214 56.944C366.49 56.8684 373.138 56.8684 377.675 56.8684H384.687" stroke="url(#paint3_linear_49_4493)" stroke-opacity="0.74" stroke-width="4.82782" stroke-miterlimit="10"/>
<path d="M-52.5664 76.9662H149.681C155.135 76.9662 160.606 76.9662 166.182 77.072C206.402 82.3952 244.857 90.7882 287.139 85.7524C312.123 82.3952 333.281 75.6808 358.162 76.9964C363.702 76.9662 368.516 76.9662 372.446 76.9662H384.687" stroke="url(#paint4_linear_49_4493)" stroke-opacity="0.74" stroke-width="4.82782" stroke-miterlimit="10"/>
<path d="M-52.5664 97.0798H-3.53253C2.47551 97.0798 8.91642 97.0798 15.7209 97.0798C20.2745 97.1554 24.8628 97.2159 29.4857 97.2613C34.1086 97.3067 38.7488 97.3369 43.4063 97.352C66.088 97.5033 89.1678 97.5033 111.849 97.0798C116.299 97.0798 120.784 97.0798 125.303 97.0798H166.078C171.549 97.0798 177.003 97.0798 182.492 97.0949C237.17 102.539 291 100.86 344.483 97.1857C352.673 97.0798 359.928 97.0798 365.901 97.0798H384.687" stroke="url(#paint5_linear_49_4493)" stroke-opacity="0.74" stroke-width="4.82782" stroke-miterlimit="10"/>
<path d="M-52.5664 117.177H-26.0064C-19.3058 117.238 -12.6225 117.268 -5.97382 117.268C52.6002 114.304 108.352 117.661 166.06 117.177H186.526C193.33 117.177 200.117 117.177 206.87 117.192C246.779 117.661 289.061 117.661 329.559 117.223C337.904 117.177 345.54 117.177 352.292 117.177H384.687" stroke="url(#paint6_linear_49_4493)" stroke-opacity="0.74" stroke-width="4.82782" stroke-miterlimit="10"/>
<path d="M-52.5664 137.275C-52.5664 137.275 -45.7273 137.275 -33.9017 137.29C-27.9456 137.169 -22.0068 137.018 -16.1027 136.746C50.6956 126.039 116.057 134.447 182.457 137.275H227.63C232.374 137.275 237.066 137.275 241.723 137.275C262.172 137.804 285.234 137.804 306.288 137.275H384.704" stroke="url(#paint7_linear_49_4493)" stroke-opacity="0.74" stroke-width="4.82782" stroke-miterlimit="10"/>
<path d="M-52.5664 157.373C-52.5664 157.373 -48.1859 157.373 -40.4291 157.388C-33.6247 156.935 -26.8375 156.39 -20.1196 155.528C44.93 136.126 114.135 142.841 182.18 157.283C187.894 157.358 193.348 157.373 198.75 157.373H384.687" stroke="url(#paint8_linear_49_4493)" stroke-opacity="0.74" stroke-width="4.82782" stroke-miterlimit="10"/>
<path d="M-52.5664 177.471C-52.5664 177.471 -48.1859 177.471 -40.4638 177.486C-34.5596 178.151 -28.8632 178.106 -23.34 177.365C-1.21243 173.055 16.0845 159.626 39.1644 154.59C89.1505 144.519 131.449 168.019 179.687 174.053C186.318 175.051 192.603 176.185 198.767 177.471C204.186 177.471 209.571 177.471 214.904 177.471H384.704" stroke="url(#paint9_linear_49_4493)" stroke-opacity="0.74" stroke-width="4.82782" stroke-miterlimit="10"/>
<path d="M-52.5664 197.584C-52.5664 197.584 -48.1859 197.584 -40.3599 197.584C-36.343 197.75 -32.2395 197.977 -28.188 198.068C-1.21241 201.607 10.3189 176.428 33.3987 169.713C52.6175 162.999 73.7755 166.356 92.9943 171.392C121.84 179.785 148.746 189.856 179.808 193.38C186.353 194.605 192.568 195.951 198.715 197.372C204.169 197.569 209.554 197.569 214.886 197.584H384.687" stroke="url(#paint10_linear_49_4493)" stroke-opacity="0.74" stroke-width="4.82782" stroke-miterlimit="10"/>
<path d="M16.4826 277.975V271.85C16.4826 267.873 16.4826 262.081 16.4826 254.716C6.49231 208.32 4.57044 157.947 14.1452 111.324C14.8897 106.061 15.6515 100.648 16.4653 95.2186C16.5173 91.1204 16.5173 87.0222 16.5173 82.9391V-103.93" stroke="url(#paint11_linear_49_4493)" stroke-opacity="0.74" stroke-width="4.82782" stroke-miterlimit="10"/>
<path d="M39.4948 277.975C38.5079 272.591 37.5383 267.238 36.6207 261.9C25.6954 209.999 16.086 156.268 34.9931 104.988C36.361 99.952 37.8153 94.7044 39.4429 89.4115C39.4775 85.026 39.4775 80.6556 39.4775 76.2852V-103.93" stroke="url(#paint12_linear_49_4493)" stroke-opacity="0.74" stroke-width="4.82782" stroke-miterlimit="10"/>
<path d="M62.5035 277.566C62.7113 272.894 62.5036 268.311 61.9322 263.805C56.4609 228.479 27.6154 196.585 33.381 157.962C37.2247 132.768 64.1484 115.982 62.4862 88.8217C62.4862 84.6479 62.4862 80.459 62.4862 76.3003V-103.93" stroke="url(#paint13_linear_49_4493)" stroke-opacity="0.74" stroke-width="4.82782" stroke-miterlimit="10"/>
<path d="M85.4633 276.614C85.4286 270.822 84.7707 265.166 83.5067 259.54C62.2276 209.999 29.5556 157.947 79.5418 109.252C85.3074 105.895 87.2293 97.5021 85.5325 88.8067V-103.93" stroke="url(#paint14_linear_49_4493)" stroke-opacity="0.74" stroke-width="4.82782" stroke-miterlimit="10"/>
<path d="M108.456 276.145C107.106 270.202 105.738 264.289 104.179 258.407C81.4632 206.642 64.149 149.554 108.11 101.359C108.456 96.5801 108.543 91.8014 108.543 87.0227V16.8993C108.369 -3.24391 108.369 -23.4023 108.543 -44.2714V-103.945" stroke="url(#paint15_linear_49_4493)" stroke-opacity="0.74" stroke-width="4.82782" stroke-miterlimit="10"/>
<path d="M131.521 276.659C130.742 271.336 130.015 266.013 129.322 260.675C128.335 255.367 127.4 250.044 126.24 244.736C102.623 196.57 114.155 147.876 131.382 101.344C131.573 95.0828 131.573 88.8069 131.573 82.5462V51.4088C131.798 46.252 131.971 41.0952 132.092 35.9233C132.213 30.7514 132.283 25.5644 132.3 20.3168C131.469 -11.6372 131.469 -41.8672 131.573 -72.944V-103.945" stroke="url(#paint16_linear_49_4493)" stroke-opacity="0.74" stroke-width="4.82782" stroke-miterlimit="10"/>
<path d="M154.563 277.566C154.372 272.153 154.199 266.739 154.078 261.34C153.922 255.896 153.801 250.467 153.662 244.992C141.04 203.284 148.728 159.626 154.424 115.574C154.563 110.84 154.563 106.092 154.563 101.328V76.2851C155.186 72.5499 155.723 68.8751 156.173 65.2306C156.606 61.6011 156.969 58.002 157.264 54.4179C162.198 3.47 154.511 -45.2246 154.563 -95.6735V-103.93" stroke="url(#paint17_linear_49_4493)" stroke-opacity="0.74" stroke-width="4.82782" stroke-miterlimit="10"/>
<path d="M177.573 277.975C177.573 266.436 177.573 255.064 177.573 243.783C177.573 238.142 177.573 232.531 177.573 226.936C177.573 221.341 177.521 215.761 177.383 210.211C175.651 183.156 177.573 156.284 177.59 129.683V106.44C177.59 102.538 177.59 98.6212 177.59 94.7044C179.997 89.593 181.971 84.4514 183.581 79.2643C194.887 18.5926 175.669 -43.5309 177.59 -103.93" stroke="url(#paint18_linear_49_4493)" stroke-opacity="0.74" stroke-width="4.82782" stroke-miterlimit="10"/>
<path d="M200.585 277.975V238.248C200.637 220.071 200.637 201.606 200.585 183.172C200.585 178.983 200.585 174.718 200.585 170.363V129.003C200.585 124.254 200.585 119.476 200.585 114.682C200.603 106.924 201.105 99.2718 203.027 92.3003C204.949 85.3288 208.325 79.0227 214.056 73.9718C221.778 65.5939 227.544 55.5223 227.544 43.772C223.7 -6.60123 192.933 -51.9387 200.568 -103.945" stroke="url(#paint19_linear_49_4493)" stroke-opacity="0.74" stroke-width="4.82782" stroke-miterlimit="10"/>
<path d="M223.614 277.975V141.479C223.614 137.577 223.614 133.63 223.614 129.668C220.792 116.95 224.653 105.548 230.436 94.8106C232.357 91.2265 234.504 87.7332 236.669 84.2701C250.624 67.2875 256.39 47.1291 252.546 25.3073C241.015 -20.0302 216.013 -58.6532 223.597 -103.945" stroke="url(#paint20_linear_49_4493)" stroke-opacity="0.74" stroke-width="4.82782" stroke-miterlimit="10"/>
<path d="M246.624 277.975V153.093C246.624 149.252 246.624 145.381 246.624 141.479C242.884 118.886 254.467 100.149 264.302 80.7166C266.76 75.8622 269.098 70.9625 271.037 65.9418C275.625 55.5224 277.547 43.757 275.625 33.6854C260.25 -13.3306 239.092 -55.3109 246.624 -103.945" stroke="url(#paint21_linear_49_4493)" stroke-opacity="0.74" stroke-width="4.82782" stroke-miterlimit="10"/>
<path d="M269.634 277.975V153.093C269.634 149.252 269.634 145.38 269.634 141.479C266.621 117.419 278.135 95.9294 285.389 72.9128C286.844 68.3156 288.125 63.6427 289.077 58.8942C290.999 11.8782 264.093 -33.4593 269.599 -80.8231C269.634 -88.0366 269.634 -93.8285 269.634 -97.8058V-103.93" stroke="url(#paint22_linear_49_4493)" stroke-opacity="0.74" stroke-width="4.82782" stroke-miterlimit="10"/>
<path d="M292.645 277.975V140.783C296.628 109.903 300.541 79.3555 301.51 48.6719C301.666 42.5472 301.718 36.4075 301.597 30.2375C300.627 -1.56529 292.94 -31.7953 292.628 -64.2332C292.628 -70.3276 292.628 -75.8625 292.645 -80.7471V-103.945" stroke="url(#paint23_linear_49_4493)" stroke-opacity="0.74" stroke-width="4.82782" stroke-miterlimit="10"/>
<path d="M315.655 277.976V141.479C315.655 137.109 315.655 132.708 315.655 128.277C318.564 92.6336 319.447 58.0785 318.269 23.3722C318.096 18.412 317.889 13.4518 317.629 8.4916C315.967 -4.90699 315.967 -20.0296 315.638 -33.1559C315.638 -40.1426 315.638 -46.7511 315.638 -52.9363V-103.914" stroke="url(#paint24_linear_49_4493)" stroke-opacity="0.74" stroke-width="4.82782" stroke-miterlimit="10"/>
</g>
<defs>
<linearGradient id="paint0_linear_49_4493" x1="166.06" y1="-4.2251" x2="166.06" y2="21.9505" gradientUnits="userSpaceOnUse">
<stop stop-color="#746D6D" stop-opacity="0"/>
<stop offset="0.233333" stop-color="#9767F1"/>
<stop offset="0.759375" stop-color="#6A3CC0"/>
<stop offset="1" stop-color="#746D6D" stop-opacity="0"/>
</linearGradient>
<linearGradient id="paint1_linear_49_4493" x1="166.069" y1="15.6814" x2="166.069" y2="45.7522" gradientUnits="userSpaceOnUse">
<stop stop-color="#746D6D" stop-opacity="0"/>
<stop offset="0.233333" stop-color="#9767F1"/>
<stop offset="0.759375" stop-color="#6A3CC0"/>
<stop offset="1" stop-color="#746D6D" stop-opacity="0"/>
</linearGradient>
<linearGradient id="paint2_linear_49_4493" x1="166.078" y1="36.7144" x2="166.078" y2="58.4232" gradientUnits="userSpaceOnUse">
<stop stop-color="#746D6D" stop-opacity="0"/>
<stop offset="0.233333" stop-color="#9767F1"/>
<stop offset="0.759375" stop-color="#6A3CC0"/>
<stop offset="1" stop-color="#746D6D" stop-opacity="0"/>
</linearGradient>
<linearGradient id="paint3_linear_49_4493" x1="166.06" y1="56.8684" x2="166.06" y2="70.6724" gradientUnits="userSpaceOnUse">
<stop stop-color="#746D6D" stop-opacity="0"/>
<stop offset="0.233333" stop-color="#9767F1"/>
<stop offset="0.759375" stop-color="#6A3CC0"/>
<stop offset="1" stop-color="#746D6D" stop-opacity="0"/>
</linearGradient>
<linearGradient id="paint4_linear_49_4493" x1="166.06" y1="76.8279" x2="166.06" y2="87.3023" gradientUnits="userSpaceOnUse">
<stop stop-color="#746D6D" stop-opacity="0"/>
<stop offset="0.233333" stop-color="#9767F1"/>
<stop offset="0.759375" stop-color="#6A3CC0"/>
<stop offset="1" stop-color="#746D6D" stop-opacity="0"/>
</linearGradient>
<linearGradient id="paint5_linear_49_4493" x1="166.06" y1="97.0798" x2="166.06" y2="100.585" gradientUnits="userSpaceOnUse">
<stop stop-color="#746D6D" stop-opacity="0"/>
<stop offset="0.233333" stop-color="#9767F1"/>
<stop offset="0.759375" stop-color="#6A3CC0"/>
<stop offset="1" stop-color="#746D6D" stop-opacity="0"/>
</linearGradient>
<linearGradient id="paint6_linear_49_4493" x1="166.06" y1="116.031" x2="166.06" y2="117.548" gradientUnits="userSpaceOnUse">
<stop stop-color="#746D6D" stop-opacity="0"/>
<stop offset="0.233333" stop-color="#9767F1"/>
<stop offset="0.759375" stop-color="#6A3CC0"/>
<stop offset="1" stop-color="#746D6D" stop-opacity="0"/>
</linearGradient>
<linearGradient id="paint7_linear_49_4493" x1="166.069" y1="131.46" x2="166.069" y2="137.672" gradientUnits="userSpaceOnUse">
<stop stop-color="#746D6D" stop-opacity="0"/>
<stop offset="0.233333" stop-color="#9767F1"/>
<stop offset="0.759375" stop-color="#6A3CC0"/>
<stop offset="1" stop-color="#746D6D" stop-opacity="0"/>
</linearGradient>
<linearGradient id="paint8_linear_49_4493" x1="166.06" y1="143.52" x2="166.06" y2="157.388" gradientUnits="userSpaceOnUse">
<stop stop-color="#746D6D" stop-opacity="0"/>
<stop offset="0.233333" stop-color="#9767F1"/>
<stop offset="0.759375" stop-color="#6A3CC0"/>
<stop offset="1" stop-color="#746D6D" stop-opacity="0"/>
</linearGradient>
<linearGradient id="paint9_linear_49_4493" x1="166.069" y1="152.113" x2="166.069" y2="177.955" gradientUnits="userSpaceOnUse">
<stop stop-color="#746D6D" stop-opacity="0"/>
<stop offset="0.233333" stop-color="#9767F1"/>
<stop offset="0.759375" stop-color="#6A3CC0"/>
<stop offset="1" stop-color="#746D6D" stop-opacity="0"/>
</linearGradient>
<linearGradient id="paint10_linear_49_4493" x1="166.06" y1="165.953" x2="166.06" y2="198.407" gradientUnits="userSpaceOnUse">
<stop stop-color="#746D6D" stop-opacity="0"/>
<stop offset="0.233333" stop-color="#9767F1"/>
<stop offset="0.759375" stop-color="#6A3CC0"/>
<stop offset="1" stop-color="#746D6D" stop-opacity="0"/>
</linearGradient>
<linearGradient id="paint11_linear_49_4493" x1="12.2039" y1="-103.93" x2="12.2039" y2="277.975" gradientUnits="userSpaceOnUse">
<stop stop-color="#746D6D" stop-opacity="0"/>
<stop offset="0.233333" stop-color="#9767F1"/>
<stop offset="0.759375" stop-color="#6A3CC0"/>
<stop offset="1" stop-color="#746D6D" stop-opacity="0"/>
</linearGradient>
<linearGradient id="paint12_linear_49_4493" x1="31.869" y1="-103.93" x2="31.869" y2="277.975" gradientUnits="userSpaceOnUse">
<stop stop-color="#746D6D" stop-opacity="0"/>
<stop offset="0.233333" stop-color="#9767F1"/>
<stop offset="0.759375" stop-color="#6A3CC0"/>
<stop offset="1" stop-color="#746D6D" stop-opacity="0"/>
</linearGradient>
<linearGradient id="paint13_linear_49_4493" x1="47.6027" y1="-103.93" x2="47.6027" y2="277.566" gradientUnits="userSpaceOnUse">
<stop stop-color="#746D6D" stop-opacity="0"/>
<stop offset="0.233333" stop-color="#9767F1"/>
<stop offset="0.759375" stop-color="#6A3CC0"/>
<stop offset="1" stop-color="#746D6D" stop-opacity="0"/>
</linearGradient>
<linearGradient id="paint14_linear_49_4493" x1="69.6608" y1="-103.93" x2="69.6608" y2="276.614" gradientUnits="userSpaceOnUse">
<stop stop-color="#746D6D" stop-opacity="0"/>
<stop offset="0.233333" stop-color="#9767F1"/>
<stop offset="0.759375" stop-color="#6A3CC0"/>
<stop offset="1" stop-color="#746D6D" stop-opacity="0"/>
</linearGradient>
<linearGradient id="paint15_linear_49_4493" x1="94.7191" y1="-103.945" x2="94.7191" y2="276.145" gradientUnits="userSpaceOnUse">
<stop stop-color="#746D6D" stop-opacity="0"/>
<stop offset="0.233333" stop-color="#9767F1"/>
<stop offset="0.759375" stop-color="#6A3CC0"/>
<stop offset="1" stop-color="#746D6D" stop-opacity="0"/>
</linearGradient>
<linearGradient id="paint16_linear_49_4493" x1="122.592" y1="-103.945" x2="122.592" y2="276.659" gradientUnits="userSpaceOnUse">
<stop stop-color="#746D6D" stop-opacity="0"/>
<stop offset="0.233333" stop-color="#9767F1"/>
<stop offset="0.759375" stop-color="#6A3CC0"/>
<stop offset="1" stop-color="#746D6D" stop-opacity="0"/>
</linearGradient>
<linearGradient id="paint17_linear_49_4493" x1="152.877" y1="-103.93" x2="152.877" y2="277.566" gradientUnits="userSpaceOnUse">
<stop stop-color="#746D6D" stop-opacity="0"/>
<stop offset="0.233333" stop-color="#9767F1"/>
<stop offset="0.759375" stop-color="#6A3CC0"/>
<stop offset="1" stop-color="#746D6D" stop-opacity="0"/>
</linearGradient>
<linearGradient id="paint18_linear_49_4493" x1="181.913" y1="-103.93" x2="181.913" y2="277.975" gradientUnits="userSpaceOnUse">
<stop stop-color="#746D6D" stop-opacity="0"/>
<stop offset="0.233333" stop-color="#9767F1"/>
<stop offset="0.759375" stop-color="#6A3CC0"/>
<stop offset="1" stop-color="#746D6D" stop-opacity="0"/>
</linearGradient>
<linearGradient id="paint19_linear_49_4493" x1="213.45" y1="-103.945" x2="213.45" y2="277.975" gradientUnits="userSpaceOnUse">
<stop stop-color="#746D6D" stop-opacity="0"/>
<stop offset="0.233333" stop-color="#9767F1"/>
<stop offset="0.759375" stop-color="#6A3CC0"/>
<stop offset="1" stop-color="#746D6D" stop-opacity="0"/>
</linearGradient>
<linearGradient id="paint20_linear_49_4493" x1="237.95" y1="-103.945" x2="237.95" y2="277.975" gradientUnits="userSpaceOnUse">
<stop stop-color="#746D6D" stop-opacity="0"/>
<stop offset="0.233333" stop-color="#9767F1"/>
<stop offset="0.759375" stop-color="#6A3CC0"/>
<stop offset="1" stop-color="#746D6D" stop-opacity="0"/>
</linearGradient>
<linearGradient id="paint21_linear_49_4493" x1="260.708" y1="-103.945" x2="260.708" y2="277.975" gradientUnits="userSpaceOnUse">
<stop stop-color="#746D6D" stop-opacity="0"/>
<stop offset="0.233333" stop-color="#9767F1"/>
<stop offset="0.759375" stop-color="#6A3CC0"/>
<stop offset="1" stop-color="#746D6D" stop-opacity="0"/>
</linearGradient>
<linearGradient id="paint22_linear_49_4493" x1="279.015" y1="-103.93" x2="279.015" y2="277.975" gradientUnits="userSpaceOnUse">
<stop stop-color="#746D6D" stop-opacity="0"/>
<stop offset="0.233333" stop-color="#9767F1"/>
<stop offset="0.759375" stop-color="#6A3CC0"/>
<stop offset="1" stop-color="#746D6D" stop-opacity="0"/>
</linearGradient>
<linearGradient id="paint23_linear_49_4493" x1="297.146" y1="-103.945" x2="297.146" y2="277.975" gradientUnits="userSpaceOnUse">
<stop stop-color="#746D6D" stop-opacity="0"/>
<stop offset="0.233333" stop-color="#9767F1"/>
<stop offset="0.759375" stop-color="#6A3CC0"/>
<stop offset="1" stop-color="#746D6D" stop-opacity="0"/>
</linearGradient>
<linearGradient id="paint24_linear_49_4493" x1="317.206" y1="-103.914" x2="317.206" y2="277.976" gradientUnits="userSpaceOnUse">
<stop stop-color="#746D6D" stop-opacity="0"/>
<stop offset="0.233333" stop-color="#9767F1"/>
<stop offset="0.759375" stop-color="#6A3CC0"/>
<stop offset="1" stop-color="#746D6D" stop-opacity="0"/>
</linearGradient>
</defs>
</svg>
