<svg width="93" height="37" viewBox="0 0 93 37" fill="none" xmlns="http://www.w3.org/2000/svg">
<path d="M1.22433 31.04C1.39881 31.1895 1.59821 31.2642 1.82254 31.2642H7.20645C7.58033 31.2642 7.86697 31.177 8.06638 31.0026C8.26578 30.8033 8.40287 30.6413 8.47765 30.5167L13.3381 23.3401L18.3108 30.5167C18.3855 30.6413 18.5226 30.8033 18.722 31.0026C18.9464 31.177 19.2455 31.2642 19.6193 31.2642H25.1902C25.4145 31.2642 25.6015 31.1895 25.751 31.04C25.9006 30.8656 25.9753 30.6787 25.9753 30.4793C25.9753 30.4046 25.9629 30.3298 25.938 30.255C25.938 30.1803 25.913 30.1055 25.8632 30.0308L17.6378 17.8829L9.11325 5.88455C9.03847 5.73504 8.90138 5.57306 8.70198 5.39863C8.50257 5.19928 8.21593 5.09961 7.84205 5.09961H2.42075C2.19642 5.09961 2.00948 5.18683 1.85993 5.36126C1.71038 5.51077 1.6356 5.6852 1.6356 5.88455C1.6356 6.03406 1.67299 6.18357 1.74776 6.33309L9.30019 17.9203L1.14955 30.0308C1.0997 30.1055 1.06231 30.1803 1.03739 30.255C1.01246 30.3298 1 30.4046 1 30.4793C1 30.6787 1.07478 30.8656 1.22433 31.04Z" fill="#723ED3"/>
<path d="M25.1557 9.29833C25.1557 11.6172 23.2759 13.497 20.957 13.497C18.6381 13.497 16.7583 11.6172 16.7583 9.29833C16.7583 6.97944 18.6381 5.09961 20.957 5.09961C23.2759 5.09961 25.1557 6.97944 25.1557 9.29833Z" fill="#723ED3"/>
<path d="M33.3226 27.1816L39.7553 7.69666H46.8286L53.5015 27.1816H48.9639L43.5722 10.7128L44.9602 11.2734H41.5169L42.9583 10.7128L37.7 27.1816H33.3226ZM38.2072 22.3504L39.5418 18.7204H47.1756L48.5369 22.3504H38.2072ZM59.8869 27.2884V23.2046H63.517C64.4245 23.2046 65.2431 23.0711 65.9726 22.8042C66.7022 22.5195 67.325 22.128 67.8411 21.6298C68.3571 21.1137 68.7486 20.4998 69.0155 19.788C69.2824 19.0585 69.4159 18.2577 69.4159 17.3858C69.4159 16.4782 69.2824 15.6686 69.0155 14.9568C68.7486 14.245 68.3571 13.64 67.8411 13.1418C67.325 12.6435 66.7022 12.2699 65.9726 12.0207C65.2431 11.7538 64.4245 11.6204 63.517 11.6204H59.8869V7.53651H63.2768C65.0384 7.53651 66.5776 7.79453 67.8944 8.31057C69.2112 8.82661 70.3145 9.5295 71.2042 10.4192C72.0939 11.3089 72.7523 12.3321 73.1794 13.4888C73.6243 14.6276 73.8467 15.8287 73.8467 17.0922V17.6794C73.8467 18.8538 73.6243 20.0194 73.1794 21.176C72.7523 22.3148 72.0939 23.3469 71.2042 24.2722C70.3145 25.1798 69.2112 25.9093 67.8944 26.461C66.5776 27.0126 65.0384 27.2884 63.2768 27.2884H59.8869ZM56.0433 27.2884V7.53651H60.4208V27.2884H56.0433ZM83.5456 27.6888C81.784 27.6888 80.2981 27.413 79.0881 26.8613C77.8781 26.2919 76.9616 25.5268 76.3388 24.5658C75.716 23.5872 75.4046 22.4661 75.4046 21.2027H79.6486C79.6486 21.7009 79.7821 22.1636 80.049 22.5907C80.3337 23.0177 80.7608 23.3647 81.3302 23.6316C81.8996 23.8808 82.6381 24.0053 83.5456 24.0053C84.3642 24.0053 85.0492 23.8986 85.6009 23.685C86.1525 23.4715 86.5707 23.1779 86.8554 22.8042C87.1401 22.4127 87.2825 21.9679 87.2825 21.4696C87.2825 20.8468 87.0155 20.3575 86.4817 20.0016C85.9479 19.6279 85.0848 19.3876 83.8926 19.2809L82.4246 19.1474C80.485 18.9873 78.9368 18.3823 77.7802 17.3324C76.6235 16.2825 76.0452 14.8945 76.0452 13.1685C76.0452 11.9229 76.3388 10.8463 76.9261 9.93877C77.5311 9.03125 78.3674 8.33727 79.4351 7.85681C80.5027 7.35857 81.7662 7.10945 83.2253 7.10945C84.7556 7.10945 86.0635 7.37636 87.149 7.9102C88.2523 8.42624 89.0975 9.16471 89.6847 10.1256C90.2719 11.0687 90.5655 12.1809 90.5655 13.4621H86.2949C86.2949 12.9816 86.1792 12.5457 85.9479 12.1542C85.7165 11.7449 85.3695 11.4157 84.9069 11.1666C84.462 10.9175 83.9015 10.7929 83.2253 10.7929C82.5847 10.7929 82.042 10.8997 81.5971 11.1132C81.17 11.3267 80.8497 11.6204 80.6362 11.994C80.4227 12.3499 80.3159 12.7414 80.3159 13.1685C80.3159 13.7201 80.5116 14.2006 80.9031 14.6098C81.2946 15.0191 81.9352 15.2593 82.8249 15.3305L84.3197 15.464C85.7432 15.5885 86.9977 15.8999 88.0832 16.3982C89.1687 16.8786 90.0139 17.5459 90.6189 18.4001C91.2417 19.2364 91.5531 20.2596 91.5531 21.4696C91.5531 22.7152 91.2239 23.8096 90.5655 24.7527C89.9249 25.678 89.0085 26.3987 87.8163 26.9147C86.6241 27.4308 85.2005 27.6888 83.5456 27.6888Z" fill="white"/>
</svg>
