<svg width="156" height="38" viewBox="0 0 156 38" fill="none" xmlns="http://www.w3.org/2000/svg">
<path d="M0.26714 33.8908C0.474916 34.0689 0.712374 34.1579 0.979515 34.1579H7.39088C7.83612 34.1579 8.17746 34.054 8.41492 33.8463C8.65238 33.6089 8.81563 33.416 8.90468 33.2677L14.6927 24.7215L20.6143 33.2677C20.7034 33.416 20.8666 33.6089 21.1041 33.8463C21.3712 34.054 21.7274 34.1579 22.1726 34.1579H28.8066C29.0738 34.1579 29.2964 34.0689 29.4745 33.8908C29.6526 33.6831 29.7416 33.4606 29.7416 33.2232C29.7416 33.1341 29.7268 33.0451 29.6971 32.9561C29.6971 32.8671 29.6674 32.778 29.6081 32.689L19.8129 18.2229L9.66158 3.93474C9.57253 3.75669 9.40928 3.56381 9.17182 3.35609C8.93436 3.1187 8.59302 3 8.14778 3H1.69189C1.42475 3 1.20213 3.10386 1.02404 3.31158C0.845944 3.48962 0.756898 3.69734 0.756898 3.93474C0.756898 4.11278 0.801421 4.29083 0.890468 4.46887L9.88419 18.2674L0.178094 32.689C0.118729 32.778 0.0742056 32.8671 0.0445234 32.9561C0.0148411 33.0451 0 33.1341 0 33.2232C0 33.4606 0.0890468 33.6831 0.26714 33.8908Z" fill="#723ED3"/>
<path d="M28.7656 8C28.7656 10.7614 26.527 13 23.7656 13C21.0042 13 18.7656 10.7614 18.7656 8C18.7656 5.23858 21.0042 3 23.7656 3C26.527 3 28.7656 5.23858 28.7656 8Z" fill="#723ED3"/>
<path d="M38.1544 29.0789L45.8148 5.87546H54.2379L62.1843 29.0789H56.7808L50.3601 9.46723L52.0129 10.1347H47.9126L49.629 9.46723L43.3673 29.0789H38.1544ZM43.9712 23.3258L45.5605 19.0029H54.6511L56.2722 23.3258H43.9712ZM69.7883 29.2061V24.3429H74.1111C75.1918 24.3429 76.1666 24.184 77.0354 23.8661C77.9042 23.5271 78.6459 23.0609 79.2604 22.4675C79.8749 21.853 80.3411 21.122 80.659 20.2743C80.9768 19.4055 81.1357 18.452 81.1357 17.4136C81.1357 16.3329 80.9768 15.3688 80.659 14.5211C80.3411 13.6735 79.8749 12.9531 79.2604 12.3597C78.6459 11.7664 77.9042 11.3214 77.0354 11.0247C76.1666 10.7069 75.1918 10.5479 74.1111 10.5479H69.7883V5.68475H73.8251C75.9229 5.68475 77.7559 5.99201 79.324 6.60653C80.8921 7.22105 82.2059 8.05807 83.2654 9.11759C84.3249 10.1771 85.1089 11.3956 85.6175 12.7729C86.1473 14.1291 86.4122 15.5595 86.4122 17.064V17.7633C86.4122 19.1618 86.1473 20.5498 85.6175 21.9272C85.1089 23.2834 84.3249 24.5124 83.2654 25.6143C82.2059 26.695 80.8921 27.5638 79.324 28.2207C77.7559 28.8776 75.9229 29.2061 73.8251 29.2061H69.7883ZM65.2112 29.2061V5.68475H70.424V29.2061H65.2112ZM97.962 29.6829C95.8641 29.6829 94.0947 29.3544 92.6538 28.6975C91.2129 28.0194 90.1215 27.1082 89.3799 25.964C88.6382 24.7985 88.2674 23.4635 88.2674 21.959H93.3213C93.3213 22.5523 93.4802 23.1033 93.7981 23.6118C94.1371 24.1204 94.6457 24.5336 95.3238 24.8515C96.0019 25.1481 96.8813 25.2965 97.962 25.2965C98.9368 25.2965 99.7526 25.1693 100.409 24.915C101.066 24.6607 101.564 24.3111 101.903 23.8661C102.242 23.3999 102.412 22.8702 102.412 22.2768C102.412 21.5352 102.094 20.9524 101.458 20.5286C100.823 20.0836 99.795 19.7976 98.3752 19.6704L96.627 19.5115C94.3172 19.3208 92.4737 18.6003 91.0963 17.3501C89.7189 16.0998 89.0302 14.447 89.0302 12.3915C89.0302 10.9082 89.3799 9.62616 90.0792 8.54545C90.7996 7.46474 91.7956 6.63832 93.067 6.06618C94.3384 5.47285 95.843 5.17618 97.5806 5.17618C99.4029 5.17618 100.96 5.49404 102.253 6.12975C103.567 6.74427 104.573 7.62367 105.273 8.76795C105.972 9.89104 106.322 11.2154 106.322 12.7412H101.236C101.236 12.169 101.098 11.6498 100.823 11.1837C100.547 10.6963 100.134 10.3043 99.5831 10.0076C99.0533 9.71092 98.3858 9.56259 97.5806 9.56259C96.8177 9.56259 96.1714 9.68973 95.6416 9.94402C95.1331 10.1983 94.7517 10.5479 94.4974 10.9929C94.2431 11.4168 94.1159 11.8829 94.1159 12.3915C94.1159 13.0484 94.349 13.6206 94.8152 14.1079C95.2814 14.5953 96.0443 14.8814 97.1038 14.9661L98.8838 15.1251C100.579 15.2734 102.073 15.6442 103.366 16.2376C104.658 16.8097 105.665 17.6043 106.385 18.6215C107.127 19.6174 107.498 20.8359 107.498 22.2768C107.498 23.7602 107.106 25.0634 106.322 26.1865C105.559 27.2884 104.467 28.1466 103.048 28.7611C101.628 29.3756 99.9327 29.6829 97.962 29.6829Z" fill="white"/>
</svg>
