<svg width="157" height="37" viewBox="0 0 157 37" fill="none" xmlns="http://www.w3.org/2000/svg">
<path d="M0.76714 33.3909C0.974916 33.5689 1.21237 33.6579 1.47951 33.6579H7.89088C8.33612 33.6579 8.67746 33.5541 8.91492 33.3463C9.15238 33.1089 9.31563 32.9161 9.40468 32.7677L15.1927 24.2215L21.1143 32.7677C21.2034 32.9161 21.3666 33.1089 21.6041 33.3463C21.8712 33.5541 22.2274 33.6579 22.6726 33.6579H29.3066C29.5738 33.6579 29.7964 33.5689 29.9745 33.3909C30.1526 33.1831 30.2416 32.9606 30.2416 32.7232C30.2416 32.6342 30.2268 32.5451 30.1971 32.4561C30.1971 32.3671 30.1674 32.2781 30.1081 32.1891L20.3129 17.7229L10.1616 3.43477C10.0725 3.25672 9.90928 3.06384 9.67182 2.85612C9.43436 2.61873 9.09302 2.50003 8.64778 2.50003H2.19189C1.92475 2.50003 1.70213 2.60389 1.52404 2.81161C1.34594 2.98966 1.2569 3.19737 1.2569 3.43477C1.2569 3.61281 1.30142 3.79086 1.39047 3.9689L10.3842 17.7674L0.678094 32.1891C0.618729 32.2781 0.574206 32.3671 0.544523 32.4561C0.514841 32.5451 0.5 32.6342 0.5 32.7232C0.5 32.9606 0.589047 33.1831 0.76714 33.3909Z" fill="#723ED3"/>
<path d="M39.8552 27.5C39.6812 27.5 39.5388 27.4447 39.4281 27.3339C39.3173 27.2232 39.262 27.0808 39.262 26.9068V11.4837C39.262 11.3097 39.3173 11.1673 39.4281 11.0566C39.5388 10.9459 39.6812 10.8905 39.8552 10.8905H46.499C47.8119 10.8905 48.9508 11.0962 49.9158 11.5074C50.8965 11.9029 51.6558 12.504 52.1937 13.3108C52.7473 14.1175 53.0241 15.1378 53.0241 16.3717C53.0241 17.5897 52.7473 18.5942 52.1937 19.3851C51.6558 20.176 50.8965 20.7613 49.9158 21.141C48.9508 21.5206 47.8119 21.7104 46.499 21.7104H43.6753V26.9068C43.6753 27.0808 43.6121 27.2232 43.4855 27.3339C43.3748 27.4447 43.2324 27.5 43.0584 27.5H39.8552ZM43.6042 18.436H46.3803C47.0605 18.436 47.5984 18.262 47.9938 17.914C48.4051 17.566 48.6107 17.036 48.6107 16.3242C48.6107 15.7231 48.4367 15.2169 48.0887 14.8056C47.7407 14.3943 47.1713 14.1887 46.3803 14.1887H43.6042V18.436Z" fill="white"/>
<path d="M55.89 27.5C55.716 27.5 55.5736 27.4447 55.4629 27.3339C55.3522 27.2232 55.2968 27.0808 55.2968 26.9068V11.4837C55.2968 11.3097 55.3522 11.1673 55.4629 11.0566C55.5736 10.9459 55.716 10.8905 55.89 10.8905H59.0695C59.2436 10.8905 59.3859 10.9459 59.4967 11.0566C59.6074 11.1673 59.6627 11.3097 59.6627 11.4837V26.9068C59.6627 27.0808 59.6074 27.2232 59.4967 27.3339C59.3859 27.4447 59.2436 27.5 59.0695 27.5H55.89Z" fill="white"/>
<path d="M69.7997 27.7373C68.297 27.7373 67.0078 27.4921 65.9321 27.0017C64.8723 26.5114 64.0418 25.7916 63.4407 24.8425C62.8554 23.8934 62.5311 22.7149 62.4678 21.3071C62.452 20.6585 62.4441 19.9625 62.4441 19.219C62.4441 18.4755 62.452 17.7637 62.4678 17.0835C62.5311 15.7073 62.8633 14.5446 63.4644 13.5955C64.0655 12.6306 64.9039 11.9029 65.9796 11.4125C67.0552 10.9063 68.3286 10.6532 69.7997 10.6532C70.8438 10.6532 71.8087 10.7877 72.6945 11.0566C73.5804 11.3097 74.3555 11.6894 75.0199 12.1955C75.6843 12.6859 76.1984 13.287 76.5622 13.9989C76.9418 14.6949 77.1396 15.4858 77.1554 16.3717C77.1712 16.514 77.1237 16.6327 77.013 16.7276C76.9181 16.8225 76.7995 16.8699 76.6571 16.8699H73.4538C73.2482 16.8699 73.09 16.8304 72.9793 16.7513C72.8685 16.6564 72.7736 16.4903 72.6945 16.253C72.4731 15.4146 72.1093 14.8452 71.6031 14.5446C71.1127 14.2282 70.5037 14.0701 69.776 14.0701C68.906 14.0701 68.2179 14.3152 67.7117 14.8056C67.2055 15.2802 66.9287 16.079 66.8812 17.2021C66.8338 18.4993 66.8338 19.828 66.8812 21.1884C66.9287 22.3115 67.2055 23.1183 67.7117 23.6087C68.2179 24.0832 68.906 24.3205 69.776 24.3205C70.5037 24.3205 71.1206 24.1623 71.6268 23.8459C72.133 23.5296 72.4889 22.9601 72.6945 22.1375C72.7578 21.9003 72.8448 21.7421 72.9556 21.663C73.0821 21.5681 73.2482 21.5206 73.4538 21.5206H76.6571C76.7995 21.5206 76.9181 21.5681 77.013 21.663C77.1237 21.7579 77.1712 21.8765 77.1554 22.0189C77.1396 22.9047 76.9418 23.7036 76.5622 24.4154C76.1984 25.1114 75.6843 25.7125 75.0199 26.2187C74.3555 26.7091 73.5804 27.0887 72.6945 27.3577C71.8087 27.6108 70.8438 27.7373 69.7997 27.7373Z" fill="white"/>
<path d="M83.8976 27.5C83.7236 27.5 83.5813 27.4447 83.4705 27.3339C83.3598 27.2232 83.3044 27.0808 83.3044 26.9068V14.6158H79.0809C78.9069 14.6158 78.7645 14.5604 78.6538 14.4497C78.543 14.3231 78.4877 14.1808 78.4877 14.0226V11.4837C78.4877 11.3097 78.543 11.1673 78.6538 11.0566C78.7645 10.9459 78.9069 10.8905 79.0809 10.8905H91.8465C92.0205 10.8905 92.1628 10.9459 92.2736 11.0566C92.3843 11.1673 92.4397 11.3097 92.4397 11.4837V14.0226C92.4397 14.1808 92.3843 14.3231 92.2736 14.4497C92.1628 14.5604 92.0205 14.6158 91.8465 14.6158H87.6229V26.9068C87.6229 27.0808 87.5675 27.2232 87.4568 27.3339C87.3461 27.4447 87.2037 27.5 87.0297 27.5H83.8976Z" fill="white"/>
<path d="M101.548 27.7373C100.125 27.7373 98.875 27.5079 97.7994 27.0492C96.7395 26.5746 95.917 25.8549 95.3317 24.89C94.7464 23.9092 94.4537 22.6675 94.4537 21.1647V11.4837C94.4537 11.3097 94.5091 11.1673 94.6198 11.0566C94.7306 10.9459 94.8729 10.8905 95.0469 10.8905H98.1078C98.2818 10.8905 98.4242 10.9459 98.5349 11.0566C98.6457 11.1673 98.701 11.3097 98.701 11.4837V21.141C98.701 22.1692 98.9462 22.9443 99.4366 23.4663C99.9428 23.9725 100.647 24.2256 101.548 24.2256C102.434 24.2256 103.122 23.9725 103.613 23.4663C104.119 22.9443 104.372 22.1692 104.372 21.141V11.4837C104.372 11.3097 104.427 11.1673 104.538 11.0566C104.665 10.9459 104.807 10.8905 104.965 10.8905H108.05C108.208 10.8905 108.342 10.9459 108.453 11.0566C108.58 11.1673 108.643 11.3097 108.643 11.4837V21.1647C108.643 22.6675 108.35 23.9092 107.765 24.89C107.18 25.8549 106.357 26.5746 105.297 27.0492C104.238 27.5079 102.988 27.7373 101.548 27.7373Z" fill="white"/>
<path d="M112.383 27.5C112.209 27.5 112.066 27.4447 111.956 27.3339C111.845 27.2232 111.79 27.0808 111.79 26.9068V11.4837C111.79 11.3097 111.845 11.1673 111.956 11.0566C112.066 10.9459 112.209 10.8905 112.383 10.8905H118.837C120.877 10.8905 122.483 11.3651 123.653 12.3142C124.84 13.2475 125.433 14.5762 125.433 16.3005C125.433 17.4236 125.156 18.3727 124.603 19.1478C124.065 19.9229 123.353 20.5082 122.467 20.9037L125.742 26.7407C125.789 26.8356 125.813 26.9227 125.813 27.0017C125.813 27.1283 125.757 27.2469 125.647 27.3577C125.552 27.4526 125.433 27.5 125.291 27.5H122.159C121.858 27.5 121.637 27.4288 121.494 27.2865C121.352 27.1283 121.249 26.9859 121.186 26.8594L118.481 21.6392H116.037V26.9068C116.037 27.0808 115.981 27.2232 115.871 27.3339C115.76 27.4447 115.618 27.5 115.444 27.5H112.383ZM116.037 18.2936H118.789C119.533 18.2936 120.086 18.1117 120.45 17.7479C120.83 17.384 121.02 16.8858 121.02 16.253C121.02 15.6361 120.838 15.1378 120.474 14.7582C120.126 14.3785 119.564 14.1887 118.789 14.1887H116.037V18.2936Z" fill="white"/>
<path d="M128.788 27.5C128.614 27.5 128.472 27.4447 128.361 27.3339C128.251 27.2232 128.195 27.0808 128.195 26.9068V11.4837C128.195 11.3097 128.251 11.1673 128.361 11.0566C128.472 10.9459 128.614 10.8905 128.788 10.8905H139.869C140.043 10.8905 140.186 10.9459 140.296 11.0566C140.407 11.1673 140.462 11.3097 140.462 11.4837V13.7141C140.462 13.8881 140.407 14.0305 140.296 14.1412C140.186 14.252 140.043 14.3073 139.869 14.3073H132.3V17.5106H139.347C139.521 17.5106 139.664 17.5739 139.774 17.7004C139.885 17.8111 139.94 17.9535 139.94 18.1275V20.1918C139.94 20.35 139.885 20.4924 139.774 20.6189C139.664 20.7297 139.521 20.785 139.347 20.785H132.3V24.0832H140.059C140.233 24.0832 140.375 24.1386 140.486 24.2493C140.597 24.36 140.652 24.5024 140.652 24.6764V26.9068C140.652 27.0808 140.597 27.2232 140.486 27.3339C140.375 27.4447 140.233 27.5 140.059 27.5H128.788Z" fill="white"/>
<path d="M149.542 27.7373C147.961 27.7373 146.648 27.5159 145.604 27.0729C144.56 26.6142 143.769 26.021 143.231 25.2933C142.693 24.5657 142.408 23.7906 142.377 22.968C142.377 22.8415 142.424 22.7307 142.519 22.6358C142.63 22.5251 142.756 22.4697 142.899 22.4697H145.888C146.11 22.4697 146.276 22.5093 146.387 22.5884C146.513 22.6675 146.624 22.7703 146.719 22.8968C146.845 23.1341 147.019 23.3635 147.241 23.5849C147.478 23.8064 147.779 23.9883 148.143 24.1307C148.522 24.2572 148.989 24.3205 149.542 24.3205C150.46 24.3205 151.148 24.1781 151.607 23.8934C152.081 23.6087 152.319 23.2211 152.319 22.7307C152.319 22.3827 152.192 22.098 151.939 21.8765C151.686 21.6392 151.275 21.4336 150.705 21.2596C150.151 21.0698 149.408 20.88 148.475 20.6901C147.273 20.437 146.244 20.1128 145.39 19.7173C144.552 19.306 143.911 18.7761 143.468 18.1275C143.025 17.4631 142.804 16.6406 142.804 15.6598C142.804 14.6949 143.073 13.8328 143.61 13.0735C144.164 12.3142 144.931 11.721 145.912 11.2939C146.893 10.8668 148.056 10.6532 149.4 10.6532C150.492 10.6532 151.449 10.7956 152.271 11.0803C153.11 11.3651 153.813 11.7447 154.383 12.2193C154.952 12.6938 155.38 13.2 155.664 13.7379C155.965 14.2599 156.123 14.774 156.139 15.2802C156.139 15.4067 156.091 15.5254 155.996 15.6361C155.902 15.731 155.783 15.7785 155.641 15.7785H152.508C152.334 15.7785 152.184 15.7468 152.058 15.6835C151.931 15.6203 151.82 15.5175 151.725 15.3751C151.631 15.0271 151.377 14.7265 150.966 14.4734C150.571 14.2045 150.049 14.0701 149.4 14.0701C148.704 14.0701 148.158 14.1966 147.763 14.4497C147.383 14.687 147.193 15.0587 147.193 15.5649C147.193 15.8813 147.296 16.1581 147.502 16.3954C147.723 16.6327 148.079 16.8383 148.57 17.0123C149.076 17.1863 149.764 17.3682 150.634 17.558C152.073 17.827 153.236 18.1671 154.122 18.5783C155.008 18.9738 155.656 19.4958 156.068 20.1444C156.479 20.7771 156.685 21.576 156.685 22.5409C156.685 23.6166 156.376 24.5499 155.759 25.3408C155.158 26.1159 154.32 26.7091 153.244 27.1204C152.168 27.5317 150.934 27.7373 149.542 27.7373Z" fill="white"/>
<path d="M29.2656 7.50003C29.2656 10.2615 27.027 12.5 24.2656 12.5C21.5042 12.5 19.2656 10.2615 19.2656 7.50003C19.2656 4.73861 21.5042 2.50003 24.2656 2.50003C27.027 2.50003 29.2656 4.73861 29.2656 7.50003Z" fill="#723ED3"/>
</svg>
