<svg width="1441" height="800" viewBox="0 0 1441 800" fill="none" xmlns="http://www.w3.org/2000/svg">
<g clip-path="url(#clip0_28_2028)">
<rect width="1441" height="800" fill="#0D0D0D"/>
<g opacity="0.14">
<path d="M-36 0.107932H765.631C785.693 0.107932 805.691 0.107932 825.689 0.107932C906.506 -0.0359773 984.021 -0.0359773 1059.95 0.107932C1078.74 0.107932 1097.28 0.107932 1115.5 0.107932H1567.2" stroke="url(#paint0_linear_28_2028)" stroke-opacity="0.23" stroke-width="4.82782" stroke-miterlimit="10"/>
<path d="M-36 48.1504H645.771C665.642 48.1504 685.576 48.1504 705.51 48.1504C857.114 44.1018 1005.16 44.1018 1162.61 48.1142C1178.1 48.1504 1193.27 48.1504 1208.19 48.1504H1567.2" stroke="url(#paint1_linear_28_2028)" stroke-opacity="0.23" stroke-width="4.82782" stroke-miterlimit="10"/>
<path d="M-36 96.1914H586.602C606.219 96.2275 625.963 96.2637 645.898 96.3722C835.973 96.2637 1033.35 88.2388 1220.89 96.083C1237.77 96.1914 1254.22 96.1914 1270.21 96.1914H1567.26" stroke="url(#paint2_linear_28_2028)" stroke-opacity="0.23" stroke-width="4.82782" stroke-miterlimit="10"/>
<path d="M-36 144.232H528.386C548.13 144.232 567.81 144.557 587.427 145.063C814.896 144.449 1047.51 140.436 1269.9 144.087C1299.42 144.268 1327.29 144.268 1353.32 144.268H1567.33" stroke="url(#paint3_linear_28_2028)" stroke-opacity="0.23" stroke-width="4.82782" stroke-miterlimit="10"/>
<path d="M-36 192.31H528.386C544.702 191.226 560.827 190.792 576.762 190.9C687.989 192.636 786.709 204.673 899.459 212.698C1040.46 224.735 1174.35 200.66 1316.75 192.31C1346.84 192.31 1374.9 192.31 1400.55 192.31H1567.26" stroke="url(#paint4_linear_28_2028)" stroke-opacity="0.23" stroke-width="4.82782" stroke-miterlimit="10"/>
<path d="M-36 240.352H528.386C544.702 239.629 560.827 239.556 576.762 239.99C592.697 240.424 608.568 241.328 624.059 242.268C786.645 244.798 927.646 296.996 1082.74 301.009C1167.3 301.009 1230.79 260.884 1309.19 244.545C1323.41 241.689 1337.95 239.665 1353.13 238.833C1368.24 238.038 1383.98 238.4 1400.55 240.352H1567.26" stroke="url(#paint5_linear_28_2028)" stroke-opacity="0.23" stroke-width="4.82782" stroke-miterlimit="10"/>
<path d="M-36 288.393H528.386C551.495 287.814 574.032 288.103 596.252 289.116C618.472 290.092 640.311 291.682 661.515 293.2C765.568 296.996 857.177 321.071 948.85 345.146C1096.9 381.258 1223.74 333.108 1347.86 294.899C1366.71 290.923 1386.14 287.995 1406.39 286.73C1426.64 285.465 1447.72 285.826 1469.94 288.393H1567.33" stroke="url(#paint6_linear_28_2028)" stroke-opacity="0.23" stroke-width="4.82782" stroke-miterlimit="10"/>
<path d="M-36 336.434H528.386C547.622 336.434 567.049 336.434 586.666 336.434C609.774 339.181 632.82 341.712 655.738 344.025C850.194 357.147 1047.57 409.345 1243.49 378.691C1265.07 375.33 1286.59 370.92 1307.99 365.389C1329.38 359.858 1350.65 353.135 1371.85 345.11C1407.09 333.072 1435.28 337.085 1470.13 336.47C1500.67 336.398 1525.04 336.398 1541.68 336.398H1567.39" stroke="url(#paint7_linear_28_2028)" stroke-opacity="0.23" stroke-width="4.82782" stroke-miterlimit="10"/>
<path d="M-36 384.475H645.771C665.642 384.475 685.64 384.511 706.653 385.198C857.177 413.393 1012.27 421.418 1165.72 415.779C1191.11 414.514 1216.51 412.851 1241.9 410.863C1318.08 404.862 1394.14 395.681 1470.19 384.655C1500.54 384.475 1524.92 384.475 1541.55 384.475H1567.26" stroke="url(#paint8_linear_28_2028)" stroke-opacity="0.23" stroke-width="4.82782" stroke-miterlimit="10"/>
<path d="M-36 432.516H705.574C725.572 432.516 745.633 432.516 766.076 432.769C913.553 445.493 1054.55 465.555 1209.59 453.518C1301.19 445.493 1378.77 429.443 1470 432.588C1490.32 432.516 1507.97 432.516 1522.38 432.516H1567.26" stroke="url(#paint9_linear_28_2028)" stroke-opacity="0.23" stroke-width="4.82782" stroke-miterlimit="10"/>
<path d="M-36 480.594H143.791C165.82 480.594 189.437 480.594 214.387 480.594C231.083 480.775 247.907 480.92 264.858 481.028C281.808 481.136 298.822 481.209 315.9 481.245C399.066 481.606 483.692 481.606 566.858 480.594C583.174 480.594 599.617 480.594 616.187 480.594H765.695C785.756 480.594 805.754 480.594 825.879 480.63C1026.37 493.644 1223.74 489.631 1419.85 480.847C1449.88 480.594 1476.48 480.594 1498.38 480.594H1567.26" stroke="url(#paint10_linear_28_2028)" stroke-opacity="0.23" stroke-width="4.82782" stroke-miterlimit="10"/>
<path d="M-36 528.634H61.3867C85.9556 528.779 110.461 528.851 134.839 528.851C349.611 521.766 554.034 529.791 765.631 528.634H840.671C865.621 528.634 890.507 528.634 915.267 528.67C1061.6 529.791 1216.63 529.791 1365.12 528.743C1395.72 528.634 1423.72 528.634 1448.48 528.634H1567.26" stroke="url(#paint11_linear_28_2028)" stroke-opacity="0.23" stroke-width="4.82782" stroke-miterlimit="10"/>
<path d="M-36 576.675C-36 576.675 -10.9232 576.675 32.4374 576.711C54.2764 576.422 76.0519 576.06 97.7004 575.41C342.627 549.817 582.285 569.915 825.752 576.675H991.386C1008.78 576.675 1025.99 576.675 1043.06 576.675C1118.04 577.94 1202.6 577.94 1279.8 576.675H1567.33" stroke="url(#paint12_linear_28_2028)" stroke-opacity="0.23" stroke-width="4.82782" stroke-miterlimit="10"/>
<path d="M-36 624.718C-36 624.718 -19.9382 624.718 8.5033 624.754C33.4531 623.669 58.3394 622.368 82.9718 620.308C321.487 573.929 575.238 589.979 824.736 624.501C845.686 624.682 865.684 624.718 885.492 624.718H1567.26" stroke="url(#paint13_linear_28_2028)" stroke-opacity="0.23" stroke-width="4.82782" stroke-miterlimit="10"/>
<path d="M-36 672.758C-36 672.758 -19.9382 672.758 8.3763 672.794C30.0249 674.384 50.9116 674.276 71.1634 672.505C152.298 662.202 215.72 630.103 300.346 618.065C483.629 593.99 638.724 650.165 815.594 664.588C839.909 666.974 862.955 669.685 885.555 672.758C905.426 672.758 925.17 672.758 944.724 672.758H1567.33" stroke="url(#paint14_linear_28_2028)" stroke-opacity="0.23" stroke-width="4.82782" stroke-miterlimit="10"/>
<path d="M-36 720.836C-36 720.836 -19.9382 720.836 8.75729 720.836C23.4859 721.233 38.532 721.775 53.3876 721.992C152.298 730.451 194.579 670.264 279.205 654.214C349.674 638.164 427.254 646.189 497.723 658.227C603.489 678.289 702.146 702.364 816.039 710.786C840.036 713.714 862.828 716.932 885.365 720.33C905.363 720.799 925.107 720.799 944.66 720.836H1567.26" stroke="url(#paint15_linear_28_2028)" stroke-opacity="0.23" stroke-width="4.82782" stroke-miterlimit="10"/>
<path d="M-36 768.876H8.88419C23.2954 768.876 40.9444 768.876 61.1963 768.876C102.906 762.586 159.281 774.66 187.469 754.562C363.705 638.164 610.409 742.524 817.816 757.02C840.354 760.381 862.828 764.141 885.365 768.334C905.299 768.84 925.043 768.84 944.66 768.876H1567.26" stroke="url(#paint16_linear_28_2028)" stroke-opacity="0.23" stroke-width="4.82782" stroke-miterlimit="10"/>
<path d="M-36 816.917H61.3867C81.8291 816.917 105.065 816.917 130.713 816.773C152.298 814.748 173.439 818.797 187.532 814.748C363.768 734.463 561.144 782.649 749.315 800.47C772.678 802.928 795.342 805.458 818.007 808.242C840.417 810.844 862.955 813.664 885.492 816.664C905.363 816.845 925.043 816.881 944.66 816.917H1567.26" stroke="url(#paint17_linear_28_2028)" stroke-opacity="0.23" stroke-width="4.82782" stroke-miterlimit="10"/>
<path d="M48.4394 912.998V818.073C48.4394 803.469 48.4394 787.491 48.4394 770.393C47.868 746.391 47.4236 722.786 47.2332 699.362C47.0427 675.902 47.0427 652.658 47.2332 629.27C47.4236 605.882 47.8045 582.386 48.3759 558.528C48.5028 547.358 48.5663 536.116 48.5663 524.838V0.108398" stroke="url(#paint18_linear_28_2028)" stroke-opacity="0.23" stroke-width="4.82782" stroke-miterlimit="10"/>
<path d="M132.813 912.998V857.547C132.813 845.907 132.813 832.677 132.813 817.964C124.179 734.462 124.179 654.176 126.591 571.252C128.559 544.683 130.654 517.536 132.813 490.75V0.108398" stroke="url(#paint19_linear_28_2028)" stroke-opacity="0.23" stroke-width="4.82782" stroke-miterlimit="10"/>
<path d="M217.182 912.998V898.358C217.182 888.851 217.182 875.006 217.182 857.402C180.551 746.499 173.504 626.089 208.611 514.644C211.341 502.064 214.134 489.123 217.118 476.146C217.309 466.35 217.309 456.553 217.309 446.793V0.108398" stroke="url(#paint20_linear_28_2028)" stroke-opacity="0.23" stroke-width="4.82782" stroke-miterlimit="10"/>
<path d="M301.557 912.998C297.939 900.13 294.384 887.333 291.019 874.573C250.96 750.512 215.725 622.077 285.051 499.498C290.067 487.46 295.399 474.917 301.367 462.265C301.494 451.782 301.494 441.335 301.494 430.888V0.108398" stroke="url(#paint21_linear_28_2028)" stroke-opacity="0.23" stroke-width="4.82782" stroke-miterlimit="10"/>
<path d="M385.922 912.022C386.683 900.853 385.922 889.9 383.827 879.127C363.765 794.685 257.998 718.448 279.139 626.125C293.233 565.902 391.953 525.777 385.858 460.855C385.858 450.878 385.858 440.865 385.858 430.924V0.108398" stroke="url(#paint22_linear_28_2028)" stroke-opacity="0.23" stroke-width="4.82782" stroke-miterlimit="10"/>
<path d="M470.106 909.745C469.979 895.9 467.566 882.381 462.932 868.934C384.908 750.512 265.111 626.089 448.394 509.691C469.534 501.667 476.581 481.604 470.36 460.819V0.108398" stroke="url(#paint23_linear_28_2028)" stroke-opacity="0.23" stroke-width="4.82782" stroke-miterlimit="10"/>
<path d="M554.417 908.625C549.465 894.419 544.45 880.285 538.736 866.223C455.443 742.487 391.958 606.027 553.147 490.823C554.417 479.4 554.735 467.977 554.735 456.554V288.934C554.1 240.785 554.1 192.599 554.735 142.714V0.0727539" stroke="url(#paint24_linear_28_2028)" stroke-opacity="0.23" stroke-width="4.82782" stroke-miterlimit="10"/>
<path d="M638.986 909.854C636.129 897.13 633.463 884.406 630.923 871.645C627.304 858.957 623.876 846.233 619.623 833.545C533.029 718.413 575.31 602.015 638.478 490.787C639.176 475.821 639.176 460.82 639.176 445.854V371.425C640.002 359.098 640.636 346.772 641.081 334.409C641.525 322.046 641.779 309.647 641.843 297.104C638.795 220.722 638.795 148.462 639.176 74.1769V0.0727539" stroke="url(#paint25_linear_28_2028)" stroke-opacity="0.23" stroke-width="4.82782" stroke-miterlimit="10"/>
<path d="M723.474 912.022C722.775 899.081 722.14 886.14 721.696 873.235C721.125 860.222 720.68 847.245 720.172 834.159C673.891 734.462 702.079 630.101 722.966 524.801C723.474 513.487 723.474 502.136 723.474 490.75V430.888C725.759 421.959 727.727 413.175 729.378 404.464C730.965 395.788 732.298 387.185 733.377 378.618C751.471 256.834 723.283 140.436 723.474 19.8454V0.108398" stroke="url(#paint26_linear_28_2028)" stroke-opacity="0.23" stroke-width="4.82782" stroke-miterlimit="10"/>
<path d="M807.848 912.998C807.848 885.417 807.848 858.234 807.848 831.267C807.848 817.784 807.848 804.373 807.848 790.998C807.848 777.623 807.657 764.284 807.149 751.018C800.801 686.348 807.848 622.113 807.911 558.528V502.968C807.911 493.642 807.911 484.279 807.911 474.917C816.736 462.699 823.973 450.408 829.877 438.009C871.333 292.982 800.864 144.485 807.911 0.108398" stroke="url(#paint27_linear_28_2028)" stroke-opacity="0.23" stroke-width="4.82782" stroke-miterlimit="10"/>
<path d="M892.223 912.999V818.037C892.413 774.587 892.413 730.45 892.223 686.385C892.223 676.372 892.223 666.178 892.223 655.767V556.902C892.223 545.551 892.223 534.128 892.223 522.669C892.286 504.125 894.127 485.834 901.174 469.17C908.221 452.505 920.601 437.432 941.615 425.358C969.929 405.332 991.07 381.257 991.07 353.17C976.976 232.76 864.162 124.387 892.159 0.0727539" stroke="url(#paint28_linear_28_2028)" stroke-opacity="0.23" stroke-width="4.82782" stroke-miterlimit="10"/>
<path d="M976.659 912.999V586.724C976.659 577.398 976.659 567.963 976.659 558.492C966.31 528.092 980.468 500.836 1001.67 475.17C1008.72 466.603 1016.59 458.253 1024.53 449.975C1075.7 409.38 1096.84 361.195 1082.74 309.033C1040.46 200.66 948.788 108.337 976.595 0.0727539" stroke="url(#paint29_linear_28_2028)" stroke-opacity="0.23" stroke-width="4.82782" stroke-miterlimit="10"/>
<path d="M1061.03 912.999V614.486C1061.03 605.304 1061.03 596.05 1061.03 586.724C1047.32 532.719 1089.79 487.931 1125.85 441.48C1134.86 429.876 1143.43 418.164 1150.54 406.163C1167.37 381.257 1174.41 353.134 1167.37 329.059C1110.99 216.674 1033.41 116.326 1061.03 0.0727539" stroke="url(#paint30_linear_28_2028)" stroke-opacity="0.23" stroke-width="4.82782" stroke-miterlimit="10"/>
<path d="M1145.4 912.998V614.485C1145.4 605.304 1145.4 596.05 1145.4 586.724C1134.36 529.212 1176.58 477.845 1203.18 422.827C1208.51 411.838 1213.21 400.668 1216.7 389.317C1223.74 276.932 1125.09 168.56 1145.28 55.3431C1145.4 38.1003 1145.4 24.2555 1145.4 14.7485V0.108398" stroke="url(#paint31_linear_28_2028)" stroke-opacity="0.23" stroke-width="4.82782" stroke-miterlimit="10"/>
<path d="M1229.78 912.999V585.061C1244.38 511.246 1258.73 438.227 1262.28 364.882C1262.85 350.242 1263.04 335.565 1262.6 320.817C1259.04 244.797 1230.86 172.536 1229.71 94.9983C1229.71 80.4305 1229.71 67.2002 1229.78 55.5243V0.0727539" stroke="url(#paint32_linear_28_2028)" stroke-opacity="0.23" stroke-width="4.82782" stroke-miterlimit="10"/>
<path d="M1314.15 913V586.725C1314.15 576.278 1314.15 565.759 1314.15 555.168C1324.82 469.966 1328.05 387.367 1323.74 304.407C1323.1 292.55 1322.34 280.693 1321.39 268.837C1315.29 236.809 1315.29 200.661 1314.09 169.284C1314.09 152.584 1314.09 136.787 1314.09 122.002V0.145996" stroke="url(#paint33_linear_28_2028)" stroke-opacity="0.23" stroke-width="4.82782" stroke-miterlimit="10"/>
<path d="M1398.58 912.999V541.683C1398.58 531.851 1398.58 521.982 1398.71 512.114C1399.98 429.407 1407.03 341.096 1398.71 257.377C1398.58 248.195 1398.58 239.23 1398.58 230.446V0.0727539" stroke="url(#paint34_linear_28_2028)" stroke-opacity="0.23" stroke-width="4.82782" stroke-miterlimit="10"/>
</g>
</g>
<defs>
<linearGradient id="paint0_linear_28_2028" x1="765.6" y1="0" x2="765.6" y2="0.107932" gradientUnits="userSpaceOnUse">
<stop stop-color="#746D6D" stop-opacity="0"/>
<stop offset="0.233333" stop-color="#3739E4"/>
<stop offset="0.759375" stop-color="#3739E4"/>
<stop offset="1" stop-color="#746D6D" stop-opacity="0"/>
</linearGradient>
<linearGradient id="paint1_linear_28_2028" x1="765.6" y1="45.1094" x2="765.6" y2="48.1504" gradientUnits="userSpaceOnUse">
<stop stop-color="#746D6D" stop-opacity="0"/>
<stop offset="0.233333" stop-color="#3739E4"/>
<stop offset="0.759375" stop-color="#3739E4"/>
<stop offset="1" stop-color="#746D6D" stop-opacity="0"/>
</linearGradient>
<linearGradient id="paint2_linear_28_2028" x1="765.631" y1="92.6467" x2="765.631" y2="96.3722" gradientUnits="userSpaceOnUse">
<stop stop-color="#746D6D" stop-opacity="0"/>
<stop offset="0.233333" stop-color="#3739E4"/>
<stop offset="0.759375" stop-color="#3739E4"/>
<stop offset="1" stop-color="#746D6D" stop-opacity="0"/>
</linearGradient>
<linearGradient id="paint3_linear_28_2028" x1="765.663" y1="142.571" x2="765.663" y2="145.063" gradientUnits="userSpaceOnUse">
<stop stop-color="#746D6D" stop-opacity="0"/>
<stop offset="0.233333" stop-color="#3739E4"/>
<stop offset="0.759375" stop-color="#3739E4"/>
<stop offset="1" stop-color="#746D6D" stop-opacity="0"/>
</linearGradient>
<linearGradient id="paint4_linear_28_2028" x1="765.631" y1="190.884" x2="765.631" y2="216.005" gradientUnits="userSpaceOnUse">
<stop stop-color="#746D6D" stop-opacity="0"/>
<stop offset="0.233333" stop-color="#3739E4"/>
<stop offset="0.759375" stop-color="#3739E4"/>
<stop offset="1" stop-color="#746D6D" stop-opacity="0"/>
</linearGradient>
<linearGradient id="paint5_linear_28_2028" x1="765.631" y1="238.439" x2="765.631" y2="301.009" gradientUnits="userSpaceOnUse">
<stop stop-color="#746D6D" stop-opacity="0"/>
<stop offset="0.233333" stop-color="#3739E4"/>
<stop offset="0.759375" stop-color="#3739E4"/>
<stop offset="1" stop-color="#746D6D" stop-opacity="0"/>
</linearGradient>
<linearGradient id="paint6_linear_28_2028" x1="765.663" y1="286.023" x2="765.663" y2="357.903" gradientUnits="userSpaceOnUse">
<stop stop-color="#746D6D" stop-opacity="0"/>
<stop offset="0.233333" stop-color="#3739E4"/>
<stop offset="0.759375" stop-color="#3739E4"/>
<stop offset="1" stop-color="#746D6D" stop-opacity="0"/>
</linearGradient>
<linearGradient id="paint7_linear_28_2028" x1="765.695" y1="336.299" x2="765.695" y2="388.191" gradientUnits="userSpaceOnUse">
<stop stop-color="#746D6D" stop-opacity="0"/>
<stop offset="0.233333" stop-color="#3739E4"/>
<stop offset="0.759375" stop-color="#3739E4"/>
<stop offset="1" stop-color="#746D6D" stop-opacity="0"/>
</linearGradient>
<linearGradient id="paint8_linear_28_2028" x1="765.631" y1="384.475" x2="765.631" y2="417.471" gradientUnits="userSpaceOnUse">
<stop stop-color="#746D6D" stop-opacity="0"/>
<stop offset="0.233333" stop-color="#3739E4"/>
<stop offset="0.759375" stop-color="#3739E4"/>
<stop offset="1" stop-color="#746D6D" stop-opacity="0"/>
</linearGradient>
<linearGradient id="paint9_linear_28_2028" x1="765.631" y1="432.185" x2="765.631" y2="457.223" gradientUnits="userSpaceOnUse">
<stop stop-color="#746D6D" stop-opacity="0"/>
<stop offset="0.233333" stop-color="#3739E4"/>
<stop offset="0.759375" stop-color="#3739E4"/>
<stop offset="1" stop-color="#746D6D" stop-opacity="0"/>
</linearGradient>
<linearGradient id="paint10_linear_28_2028" x1="765.631" y1="480.594" x2="765.631" y2="488.974" gradientUnits="userSpaceOnUse">
<stop stop-color="#746D6D" stop-opacity="0"/>
<stop offset="0.233333" stop-color="#3739E4"/>
<stop offset="0.759375" stop-color="#3739E4"/>
<stop offset="1" stop-color="#746D6D" stop-opacity="0"/>
</linearGradient>
<linearGradient id="paint11_linear_28_2028" x1="765.631" y1="525.894" x2="765.631" y2="529.52" gradientUnits="userSpaceOnUse">
<stop stop-color="#746D6D" stop-opacity="0"/>
<stop offset="0.233333" stop-color="#3739E4"/>
<stop offset="0.759375" stop-color="#3739E4"/>
<stop offset="1" stop-color="#746D6D" stop-opacity="0"/>
</linearGradient>
<linearGradient id="paint12_linear_28_2028" x1="765.663" y1="562.776" x2="765.663" y2="577.624" gradientUnits="userSpaceOnUse">
<stop stop-color="#746D6D" stop-opacity="0"/>
<stop offset="0.233333" stop-color="#3739E4"/>
<stop offset="0.759375" stop-color="#3739E4"/>
<stop offset="1" stop-color="#746D6D" stop-opacity="0"/>
</linearGradient>
<linearGradient id="paint13_linear_28_2028" x1="765.631" y1="591.602" x2="765.631" y2="624.754" gradientUnits="userSpaceOnUse">
<stop stop-color="#746D6D" stop-opacity="0"/>
<stop offset="0.233333" stop-color="#3739E4"/>
<stop offset="0.759375" stop-color="#3739E4"/>
<stop offset="1" stop-color="#746D6D" stop-opacity="0"/>
</linearGradient>
<linearGradient id="paint14_linear_28_2028" x1="765.663" y1="612.144" x2="765.663" y2="673.914" gradientUnits="userSpaceOnUse">
<stop stop-color="#746D6D" stop-opacity="0"/>
<stop offset="0.233333" stop-color="#3739E4"/>
<stop offset="0.759375" stop-color="#3739E4"/>
<stop offset="1" stop-color="#746D6D" stop-opacity="0"/>
</linearGradient>
<linearGradient id="paint15_linear_28_2028" x1="765.631" y1="645.226" x2="765.631" y2="722.803" gradientUnits="userSpaceOnUse">
<stop stop-color="#746D6D" stop-opacity="0"/>
<stop offset="0.233333" stop-color="#3739E4"/>
<stop offset="0.759375" stop-color="#3739E4"/>
<stop offset="1" stop-color="#746D6D" stop-opacity="0"/>
</linearGradient>
<linearGradient id="paint16_linear_28_2028" x1="765.631" y1="700.155" x2="765.631" y2="768.876" gradientUnits="userSpaceOnUse">
<stop stop-color="#746D6D" stop-opacity="0"/>
<stop offset="0.233333" stop-color="#3739E4"/>
<stop offset="0.759375" stop-color="#3739E4"/>
<stop offset="1" stop-color="#746D6D" stop-opacity="0"/>
</linearGradient>
<linearGradient id="paint17_linear_28_2028" x1="765.631" y1="769.806" x2="765.631" y2="816.917" gradientUnits="userSpaceOnUse">
<stop stop-color="#746D6D" stop-opacity="0"/>
<stop offset="0.233333" stop-color="#3739E4"/>
<stop offset="0.759375" stop-color="#3739E4"/>
<stop offset="1" stop-color="#746D6D" stop-opacity="0"/>
</linearGradient>
<linearGradient id="paint18_linear_28_2028" x1="47.8283" y1="0.108398" x2="47.8283" y2="912.998" gradientUnits="userSpaceOnUse">
<stop stop-color="#746D6D" stop-opacity="0"/>
<stop offset="0.233333" stop-color="#3739E4"/>
<stop offset="0.759375" stop-color="#3739E4"/>
<stop offset="1" stop-color="#746D6D" stop-opacity="0"/>
</linearGradient>
<linearGradient id="paint19_linear_28_2028" x1="129.012" y1="0.108398" x2="129.012" y2="912.998" gradientUnits="userSpaceOnUse">
<stop stop-color="#746D6D" stop-opacity="0"/>
<stop offset="0.233333" stop-color="#3739E4"/>
<stop offset="0.759375" stop-color="#3739E4"/>
<stop offset="1" stop-color="#746D6D" stop-opacity="0"/>
</linearGradient>
<linearGradient id="paint20_linear_28_2028" x1="201.493" y1="0.108398" x2="201.493" y2="912.998" gradientUnits="userSpaceOnUse">
<stop stop-color="#746D6D" stop-opacity="0"/>
<stop offset="0.233333" stop-color="#3739E4"/>
<stop offset="0.759375" stop-color="#3739E4"/>
<stop offset="1" stop-color="#746D6D" stop-opacity="0"/>
</linearGradient>
<linearGradient id="paint21_linear_28_2028" x1="273.596" y1="0.108398" x2="273.596" y2="912.998" gradientUnits="userSpaceOnUse">
<stop stop-color="#746D6D" stop-opacity="0"/>
<stop offset="0.233333" stop-color="#3739E4"/>
<stop offset="0.759375" stop-color="#3739E4"/>
<stop offset="1" stop-color="#746D6D" stop-opacity="0"/>
</linearGradient>
<linearGradient id="paint22_linear_28_2028" x1="331.285" y1="0.108398" x2="331.285" y2="912.022" gradientUnits="userSpaceOnUse">
<stop stop-color="#746D6D" stop-opacity="0"/>
<stop offset="0.233333" stop-color="#3739E4"/>
<stop offset="0.759375" stop-color="#3739E4"/>
<stop offset="1" stop-color="#746D6D" stop-opacity="0"/>
</linearGradient>
<linearGradient id="paint23_linear_28_2028" x1="412.164" y1="0.108398" x2="412.164" y2="909.745" gradientUnits="userSpaceOnUse">
<stop stop-color="#746D6D" stop-opacity="0"/>
<stop offset="0.233333" stop-color="#3739E4"/>
<stop offset="0.759375" stop-color="#3739E4"/>
<stop offset="1" stop-color="#746D6D" stop-opacity="0"/>
</linearGradient>
<linearGradient id="paint24_linear_28_2028" x1="504.048" y1="0.0727539" x2="504.048" y2="908.625" gradientUnits="userSpaceOnUse">
<stop stop-color="#746D6D" stop-opacity="0"/>
<stop offset="0.233333" stop-color="#3739E4"/>
<stop offset="0.759375" stop-color="#3739E4"/>
<stop offset="1" stop-color="#746D6D" stop-opacity="0"/>
</linearGradient>
<linearGradient id="paint25_linear_28_2028" x1="606.248" y1="0.0727539" x2="606.248" y2="909.854" gradientUnits="userSpaceOnUse">
<stop stop-color="#746D6D" stop-opacity="0"/>
<stop offset="0.233333" stop-color="#3739E4"/>
<stop offset="0.759375" stop-color="#3739E4"/>
<stop offset="1" stop-color="#746D6D" stop-opacity="0"/>
</linearGradient>
<linearGradient id="paint26_linear_28_2028" x1="717.293" y1="0.108398" x2="717.293" y2="912.022" gradientUnits="userSpaceOnUse">
<stop stop-color="#746D6D" stop-opacity="0"/>
<stop offset="0.233333" stop-color="#3739E4"/>
<stop offset="0.759375" stop-color="#3739E4"/>
<stop offset="1" stop-color="#746D6D" stop-opacity="0"/>
</linearGradient>
<linearGradient id="paint27_linear_28_2028" x1="823.762" y1="0.108398" x2="823.762" y2="912.998" gradientUnits="userSpaceOnUse">
<stop stop-color="#746D6D" stop-opacity="0"/>
<stop offset="0.233333" stop-color="#3739E4"/>
<stop offset="0.759375" stop-color="#3739E4"/>
<stop offset="1" stop-color="#746D6D" stop-opacity="0"/>
</linearGradient>
<linearGradient id="paint28_linear_28_2028" x1="939.391" y1="0.0727539" x2="939.391" y2="912.999" gradientUnits="userSpaceOnUse">
<stop stop-color="#746D6D" stop-opacity="0"/>
<stop offset="0.233333" stop-color="#3739E4"/>
<stop offset="0.759375" stop-color="#3739E4"/>
<stop offset="1" stop-color="#746D6D" stop-opacity="0"/>
</linearGradient>
<linearGradient id="paint29_linear_28_2028" x1="1029.22" y1="0.0727539" x2="1029.22" y2="912.999" gradientUnits="userSpaceOnUse">
<stop stop-color="#746D6D" stop-opacity="0"/>
<stop offset="0.233333" stop-color="#3739E4"/>
<stop offset="0.759375" stop-color="#3739E4"/>
<stop offset="1" stop-color="#746D6D" stop-opacity="0"/>
</linearGradient>
<linearGradient id="paint30_linear_28_2028" x1="1112.67" y1="0.0727539" x2="1112.67" y2="912.999" gradientUnits="userSpaceOnUse">
<stop stop-color="#746D6D" stop-opacity="0"/>
<stop offset="0.233333" stop-color="#3739E4"/>
<stop offset="0.759375" stop-color="#3739E4"/>
<stop offset="1" stop-color="#746D6D" stop-opacity="0"/>
</linearGradient>
<linearGradient id="paint31_linear_28_2028" x1="1179.8" y1="0.108398" x2="1179.8" y2="912.998" gradientUnits="userSpaceOnUse">
<stop stop-color="#746D6D" stop-opacity="0"/>
<stop offset="0.233333" stop-color="#3739E4"/>
<stop offset="0.759375" stop-color="#3739E4"/>
<stop offset="1" stop-color="#746D6D" stop-opacity="0"/>
</linearGradient>
<linearGradient id="paint32_linear_28_2028" x1="1246.28" y1="0.0727539" x2="1246.28" y2="912.999" gradientUnits="userSpaceOnUse">
<stop stop-color="#746D6D" stop-opacity="0"/>
<stop offset="0.233333" stop-color="#3739E4"/>
<stop offset="0.759375" stop-color="#3739E4"/>
<stop offset="1" stop-color="#746D6D" stop-opacity="0"/>
</linearGradient>
<linearGradient id="paint33_linear_28_2028" x1="1319.84" y1="0.145996" x2="1319.84" y2="913" gradientUnits="userSpaceOnUse">
<stop stop-color="#746D6D" stop-opacity="0"/>
<stop offset="0.233333" stop-color="#3739E4"/>
<stop offset="0.759375" stop-color="#3739E4"/>
<stop offset="1" stop-color="#746D6D" stop-opacity="0"/>
</linearGradient>
<linearGradient id="paint34_linear_28_2028" x1="1400.64" y1="0.0727539" x2="1400.64" y2="912.999" gradientUnits="userSpaceOnUse">
<stop stop-color="#746D6D" stop-opacity="0"/>
<stop offset="0.233333" stop-color="#3739E4"/>
<stop offset="0.759375" stop-color="#3739E4"/>
<stop offset="1" stop-color="#746D6D" stop-opacity="0"/>
</linearGradient>
<clipPath id="clip0_28_2028">
<rect width="1441" height="800" fill="white"/>
</clipPath>
</defs>
</svg>
